# xmcd
#
# Track frame offsets:
#	182
#	20112
#	39465
#	61987
#	78975
#	100810
#	115757
#	133322
#	147797
#	164882
#	182790
#
# Disc length: 2680 seconds
#
# Revision: 0
# Processed by: cddbd v1.4PL0 Copyright (c) Steve Scherf et al.
# Submitted via: dBpowerAMP V4.0
#
DISCID=9c0a760b
DTITLE=Maridali Hernandez - Amorosa
DYEAR=1900
DGENRE=Ballad
TTITLE0=Hiereme Otra Vez
TTITLE1=Sabor A Mi
TTITLE2=Besame Mucho
TTITLE3=Olas Y Arena
TTITLE4=Tu Me Acostumbraste
TTITLE5=Condenado A La Distancia
TTITLE6=Mienteme
TTITLE7=Cenizas
TTITLE8=Poquita Fe
TTITLE9=Que Te Pedi
TTITLE10=Honor A La Verdad
EXTD=
EXTT0=
EXTT1=
EXTT2=
EXTT3=
EXTT4=
EXTT5=
EXTT6=
EXTT7=
EXTT8=
EXTT9=
EXTT10=
PLAYORDER=
